<mxfile host="app.diagrams.net" modified="2023-10-11T08:01:26.757Z" agent="Mozilla/5.0 (Windows NT 10.0; Win64; x64) AppleWebKit/537.36 (KHTML, like Gecko) Chrome/117.0.0.0 Safari/537.36" version="22.0.4" etag="6-9ti74MSRsMTwKvLcKA" type="github">
  <diagram name="第 1 页" id="xcf4Q69PDXeoAPUizjaT">
    <mxGraphModel>
      <root>
        <mxCell id="0" />
        <mxCell id="1" parent="0" />
      </root>
    </mxGraphModel>
  </diagram>
</mxfile>
